<mxfile host="Electron" modified="2023-05-19T09:34:07.175Z" agent="Mozilla/5.0 (Windows NT 10.0; Win64; x64) AppleWebKit/537.36 (KHTML, like Gecko) draw.io/21.2.8 Chrome/112.0.5615.165 Electron/24.2.0 Safari/537.36" etag="jNISvkIGdR5Bwb0K8lQH" version="21.2.8" type="device">
  <diagram name="Page-1" id="5nWwU-cvdYqmI8r7x9GO">
    <mxGraphModel dx="4005" dy="1869" grid="1" gridSize="10" guides="1" tooltips="1" connect="1" arrows="1" fold="1" page="1" pageScale="1" pageWidth="850" pageHeight="1100" math="0" shadow="0">
      <root>
        <mxCell id="0" />
        <mxCell id="1" parent="0" />
        <mxCell id="s2RD4rWoNlKBEPkYCCUj-22" value="" style="edgeStyle=orthogonalEdgeStyle;rounded=0;orthogonalLoop=1;jettySize=auto;html=1;" edge="1" parent="1" source="s2RD4rWoNlKBEPkYCCUj-1" target="s2RD4rWoNlKBEPkYCCUj-16">
          <mxGeometry relative="1" as="geometry" />
        </mxCell>
        <UserObject label="&lt;div style=&quot;font-size: 11.29px;&quot;&gt;&lt;span style=&quot;font-size: 11.29px;&quot;&gt;START&lt;/span&gt;&lt;/div&gt;" Function="EN_DIO_Error_T DIO_init(uint8_t pinNumber, EN_DIO_PORT_T portNumber, EN_DIO_DIRECTION_T direction);" tags="Flowchart" id="s2RD4rWoNlKBEPkYCCUj-1">
          <mxCell style="verticalAlign=middle;align=center;overflow=width;vsdxID=30;fillColor=#dae8fc;shape=stencil(tVLREoIgEPwaHnEQxsl3s/9gEpSJwDko7e+DsEkze2l627vdu5uFRaxyHe8FosR5sCcxqMZ3iO0Rpcp0ApQPCLEasUpaEC3Yi2lS3fOojOhsr3HDmObyMtsVcYqS29Qh5FEfklwrM5OXeUa/yjkcAwfr7TDpiyTfXvjkMR+Vw2A998qaBac5tAKHU1hq3i4oNwjRr9ofvayt/+Rk+yX/4iWA159KpXWKxJx/z0Bopfyw+g4=);strokeColor=#6c8ebf;spacingTop=-1;spacingBottom=-1;spacingLeft=-1;spacingRight=-1;points=[[0.5,1,0],[0.5,0,0],[0,0.5,0],[1,0.5,0]];labelBackgroundColor=none;rounded=1;html=1;whiteSpace=wrap;fontFamily=Calibri;fontSize=11.29;" vertex="1" parent="1">
            <mxGeometry x="-1925.75" y="-990" width="101" height="38" as="geometry" />
          </mxCell>
        </UserObject>
        <mxCell id="s2RD4rWoNlKBEPkYCCUj-9" value="" style="edgeStyle=orthogonalEdgeStyle;rounded=0;orthogonalLoop=1;jettySize=auto;html=1;" edge="1" parent="1" source="s2RD4rWoNlKBEPkYCCUj-2" target="s2RD4rWoNlKBEPkYCCUj-3">
          <mxGeometry relative="1" as="geometry" />
        </mxCell>
        <UserObject label="&lt;div style=&quot;font-size: 11.29px;&quot;&gt;&lt;span style=&quot;font-size: 11.29px;&quot;&gt;START&lt;/span&gt;&lt;/div&gt;" Function="EN_DIO_Error_T DIO_init(uint8_t pinNumber, EN_DIO_PORT_T portNumber, EN_DIO_DIRECTION_T direction);" tags="Flowchart" id="s2RD4rWoNlKBEPkYCCUj-2">
          <mxCell style="verticalAlign=middle;align=center;overflow=width;vsdxID=30;fillColor=#dae8fc;shape=stencil(tVLREoIgEPwaHnEQxsl3s/9gEpSJwDko7e+DsEkze2l627vdu5uFRaxyHe8FosR5sCcxqMZ3iO0Rpcp0ApQPCLEasUpaEC3Yi2lS3fOojOhsr3HDmObyMtsVcYqS29Qh5FEfklwrM5OXeUa/yjkcAwfr7TDpiyTfXvjkMR+Vw2A998qaBac5tAKHU1hq3i4oNwjRr9ofvayt/+Rk+yX/4iWA159KpXWKxJx/z0Bopfyw+g4=);strokeColor=#6c8ebf;spacingTop=-1;spacingBottom=-1;spacingLeft=-1;spacingRight=-1;points=[[0.5,1,0],[0.5,0,0],[0,0.5,0],[1,0.5,0]];labelBackgroundColor=none;rounded=1;html=1;whiteSpace=wrap;fontFamily=Calibri;fontSize=11.29;" vertex="1" parent="1">
            <mxGeometry x="-2410" y="-990" width="101" height="38" as="geometry" />
          </mxCell>
        </UserObject>
        <mxCell id="s2RD4rWoNlKBEPkYCCUj-10" value="TRUE" style="edgeStyle=orthogonalEdgeStyle;rounded=0;orthogonalLoop=1;jettySize=auto;html=1;" edge="1" parent="1" source="s2RD4rWoNlKBEPkYCCUj-3" target="s2RD4rWoNlKBEPkYCCUj-7">
          <mxGeometry relative="1" as="geometry" />
        </mxCell>
        <mxCell id="s2RD4rWoNlKBEPkYCCUj-15" value="FALSE" style="edgeStyle=orthogonalEdgeStyle;rounded=0;orthogonalLoop=1;jettySize=auto;html=1;" edge="1" parent="1" source="s2RD4rWoNlKBEPkYCCUj-3" target="s2RD4rWoNlKBEPkYCCUj-6">
          <mxGeometry x="-0.6093" relative="1" as="geometry">
            <mxPoint as="offset" />
          </mxGeometry>
        </mxCell>
        <UserObject label="if( TIMER_init() &lt;br&gt;== TIMER_OK)" Function="EN_DIO_Error_T DIO_init(uint8_t pinNumber, EN_DIO_PORT_T portNumber, EN_DIO_DIRECTION_T direction);" tags="Flowchart" id="s2RD4rWoNlKBEPkYCCUj-3">
          <mxCell style="vsdxID=219;fillColor=#fff2cc;shape=stencil(UzV2Ls5ILEhVNTIoLinKz04tz0wpyVA1dlE1MsrMy0gtyiwBslSNXVWNndPyi1LTi/JL81Ig/IJEkEoQKze/DGRCBUSfAUiHkUElhGcK4bpBVOZk5iGpNEVVikeloQHZpsK0YlWLz1QgA+HFtMycHEgIIcujBwlQCBKcxq4A);strokeColor=#d6b656;spacingTop=-1;spacingBottom=-1;spacingLeft=-1;spacingRight=-1;points=[[0,0.5,0],[1,0.5,0],[0.5,0,0],[0.5,1,0]];labelBackgroundColor=none;rounded=1;html=1;whiteSpace=wrap;fontFamily=Calibri;fontSize=11.29;" vertex="1" parent="1">
            <mxGeometry x="-2410" y="-920" width="101" height="76" as="geometry" />
          </mxCell>
        </UserObject>
        <UserObject label="&lt;div style=&quot;font-size: 11.29px;&quot;&gt;&lt;font style=&quot;font-size: 11.29px; direction: ltr; letter-spacing: 0px; line-height: 120%; opacity: 1;&quot;&gt;DELAY_OK&lt;/font&gt;&lt;/div&gt;" Function="EN_DIO_Error_T DIO_init(uint8_t pinNumber, EN_DIO_PORT_T portNumber, EN_DIO_DIRECTION_T direction);" tags="Flowchart" id="s2RD4rWoNlKBEPkYCCUj-5">
          <mxCell style="verticalAlign=middle;align=center;overflow=width;vsdxID=52;fillColor=#d5e8d4;shape=stencil(tVLREoIgEPwaHnEQxsl3s/9gEpSJwDko7e+DsEkze2l627vdu5uFRaxyHe8FosR5sCcxqMZ3iO0Rpcp0ApQPCLEasUpaEC3Yi2lS3fOojOhsr3HDmObyMtsVcYqS29Qh5FEfklwrM5OXeUa/yjkcAwfr7TDpiyTfXvjkMR+Vw2A998qaBac5tAKHU1hq3i4oNwjRr9ofvayt/+Rk+yX/4iWA159KpXWKxJx/z0Bopfyw+g4=);strokeColor=#82b366;spacingTop=-1;spacingBottom=-1;spacingLeft=-1;spacingRight=-1;points=[[0.5,1,0],[0.5,0,0],[0,0.5,0],[1,0.5,0]];labelBackgroundColor=none;rounded=1;html=1;whiteSpace=wrap;fontFamily=Calibri;fontSize=11.29;" vertex="1" parent="1">
            <mxGeometry x="-2410" y="-560" width="101" height="38" as="geometry" />
          </mxCell>
        </UserObject>
        <UserObject label="&lt;div style=&quot;font-size: 11.29px;&quot;&gt;&lt;font style=&quot;font-size: 11.29px; direction: ltr; letter-spacing: 0px; line-height: 120%; opacity: 1;&quot;&gt;DELAY_NOK&lt;/font&gt;&lt;/div&gt;" Function="EN_DIO_Error_T DIO_init(uint8_t pinNumber, EN_DIO_PORT_T portNumber, EN_DIO_DIRECTION_T direction);" tags="Flowchart" id="s2RD4rWoNlKBEPkYCCUj-6">
          <mxCell style="verticalAlign=middle;align=center;overflow=width;vsdxID=52;fillColor=#f8cecc;shape=stencil(tVLREoIgEPwaHnEQxsl3s/9gEpSJwDko7e+DsEkze2l627vdu5uFRaxyHe8FosR5sCcxqMZ3iO0Rpcp0ApQPCLEasUpaEC3Yi2lS3fOojOhsr3HDmObyMtsVcYqS29Qh5FEfklwrM5OXeUa/yjkcAwfr7TDpiyTfXvjkMR+Vw2A998qaBac5tAKHU1hq3i4oNwjRr9ofvayt/+Rk+yX/4iWA159KpXWKxJx/z0Bopfyw+g4=);strokeColor=#b85450;spacingTop=-1;spacingBottom=-1;spacingLeft=-1;spacingRight=-1;points=[[0.5,1,0],[0.5,0,0],[0,0.5,0],[1,0.5,0]];labelBackgroundColor=none;rounded=1;html=1;whiteSpace=wrap;fontFamily=Calibri;fontSize=11.29;" vertex="1" parent="1">
            <mxGeometry x="-2226" y="-560" width="101" height="38" as="geometry" />
          </mxCell>
        </UserObject>
        <mxCell id="s2RD4rWoNlKBEPkYCCUj-11" value="TRUE" style="edgeStyle=orthogonalEdgeStyle;rounded=0;orthogonalLoop=1;jettySize=auto;html=1;" edge="1" parent="1" source="s2RD4rWoNlKBEPkYCCUj-7" target="s2RD4rWoNlKBEPkYCCUj-8">
          <mxGeometry relative="1" as="geometry" />
        </mxCell>
        <mxCell id="s2RD4rWoNlKBEPkYCCUj-14" value="FALSE" style="edgeStyle=orthogonalEdgeStyle;rounded=0;orthogonalLoop=1;jettySize=auto;html=1;" edge="1" parent="1" source="s2RD4rWoNlKBEPkYCCUj-7" target="s2RD4rWoNlKBEPkYCCUj-6">
          <mxGeometry x="-0.7545" relative="1" as="geometry">
            <mxPoint as="offset" />
          </mxGeometry>
        </mxCell>
        <UserObject label="if( &lt;br&gt;TIMER_disableInterrupt(&lt;br&gt;DELAY_TIMER_USED) &lt;br&gt;== TIMER_OK)" Function="EN_DIO_Error_T DIO_init(uint8_t pinNumber, EN_DIO_PORT_T portNumber, EN_DIO_DIRECTION_T direction);" tags="Flowchart" id="s2RD4rWoNlKBEPkYCCUj-7">
          <mxCell style="vsdxID=219;fillColor=#fff2cc;shape=stencil(UzV2Ls5ILEhVNTIoLinKz04tz0wpyVA1dlE1MsrMy0gtyiwBslSNXVWNndPyi1LTi/JL81Ig/IJEkEoQKze/DGRCBUSfAUiHkUElhGcK4bpBVOZk5iGpNEVVikeloQHZpsK0YlWLz1QgA+HFtMycHEgIIcujBwlQCBKcxq4A);strokeColor=#d6b656;spacingTop=-1;spacingBottom=-1;spacingLeft=-1;spacingRight=-1;points=[[0,0.5,0],[1,0.5,0],[0.5,0,0],[0.5,1,0]];labelBackgroundColor=none;rounded=1;html=1;whiteSpace=wrap;fontFamily=Calibri;fontSize=11.29;" vertex="1" parent="1">
            <mxGeometry x="-2464.5" y="-800" width="210" height="76" as="geometry" />
          </mxCell>
        </UserObject>
        <mxCell id="s2RD4rWoNlKBEPkYCCUj-12" value="TRUE" style="edgeStyle=orthogonalEdgeStyle;rounded=0;orthogonalLoop=1;jettySize=auto;html=1;" edge="1" parent="1" source="s2RD4rWoNlKBEPkYCCUj-8" target="s2RD4rWoNlKBEPkYCCUj-5">
          <mxGeometry relative="1" as="geometry" />
        </mxCell>
        <mxCell id="s2RD4rWoNlKBEPkYCCUj-13" value="FALSE" style="edgeStyle=orthogonalEdgeStyle;rounded=0;orthogonalLoop=1;jettySize=auto;html=1;" edge="1" parent="1" source="s2RD4rWoNlKBEPkYCCUj-8" target="s2RD4rWoNlKBEPkYCCUj-6">
          <mxGeometry x="-0.3248" relative="1" as="geometry">
            <mxPoint as="offset" />
          </mxGeometry>
        </mxCell>
        <UserObject label="if( TIMER_pause(&lt;br&gt;DELAY_TIMER_USED) &lt;br&gt;== TIMER_OK)" Function="EN_DIO_Error_T DIO_init(uint8_t pinNumber, EN_DIO_PORT_T portNumber, EN_DIO_DIRECTION_T direction);" tags="Flowchart" id="s2RD4rWoNlKBEPkYCCUj-8">
          <mxCell style="vsdxID=219;fillColor=#fff2cc;shape=stencil(UzV2Ls5ILEhVNTIoLinKz04tz0wpyVA1dlE1MsrMy0gtyiwBslSNXVWNndPyi1LTi/JL81Ig/IJEkEoQKze/DGRCBUSfAUiHkUElhGcK4bpBVOZk5iGpNEVVikeloQHZpsK0YlWLz1QgA+HFtMycHEgIIcujBwlQCBKcxq4A);strokeColor=#d6b656;spacingTop=-1;spacingBottom=-1;spacingLeft=-1;spacingRight=-1;points=[[0,0.5,0],[1,0.5,0],[0.5,0,0],[0.5,1,0]];labelBackgroundColor=none;rounded=1;html=1;whiteSpace=wrap;fontFamily=Calibri;fontSize=11.29;" vertex="1" parent="1">
            <mxGeometry x="-2434.5" y="-680" width="150" height="76" as="geometry" />
          </mxCell>
        </UserObject>
        <mxCell id="s2RD4rWoNlKBEPkYCCUj-23" value="TRUE" style="edgeStyle=orthogonalEdgeStyle;rounded=0;orthogonalLoop=1;jettySize=auto;html=1;" edge="1" parent="1" source="s2RD4rWoNlKBEPkYCCUj-16" target="s2RD4rWoNlKBEPkYCCUj-17">
          <mxGeometry relative="1" as="geometry" />
        </mxCell>
        <mxCell id="s2RD4rWoNlKBEPkYCCUj-27" value="FALSE" style="edgeStyle=orthogonalEdgeStyle;rounded=0;orthogonalLoop=1;jettySize=auto;html=1;" edge="1" parent="1" source="s2RD4rWoNlKBEPkYCCUj-16" target="s2RD4rWoNlKBEPkYCCUj-21">
          <mxGeometry x="-0.8149" y="-2" relative="1" as="geometry">
            <mxPoint as="offset" />
          </mxGeometry>
        </mxCell>
        <UserObject label="if( TIMER_disableInterrupt() &lt;br&gt;== TIMER_OK)" Function="EN_DIO_Error_T DIO_init(uint8_t pinNumber, EN_DIO_PORT_T portNumber, EN_DIO_DIRECTION_T direction);" tags="Flowchart" id="s2RD4rWoNlKBEPkYCCUj-16">
          <mxCell style="vsdxID=219;fillColor=#fff2cc;shape=stencil(UzV2Ls5ILEhVNTIoLinKz04tz0wpyVA1dlE1MsrMy0gtyiwBslSNXVWNndPyi1LTi/JL81Ig/IJEkEoQKze/DGRCBUSfAUiHkUElhGcK4bpBVOZk5iGpNEVVikeloQHZpsK0YlWLz1QgA+HFtMycHEgIIcujBwlQCBKcxq4A);strokeColor=#d6b656;spacingTop=-1;spacingBottom=-1;spacingLeft=-1;spacingRight=-1;points=[[0,0.5,0],[1,0.5,0],[0.5,0,0],[0.5,1,0]];labelBackgroundColor=none;rounded=1;html=1;whiteSpace=wrap;fontFamily=Calibri;fontSize=11.29;" vertex="1" parent="1">
            <mxGeometry x="-1980.25" y="-920" width="210" height="76" as="geometry" />
          </mxCell>
        </UserObject>
        <mxCell id="s2RD4rWoNlKBEPkYCCUj-24" value="TRUE" style="edgeStyle=orthogonalEdgeStyle;rounded=0;orthogonalLoop=1;jettySize=auto;html=1;" edge="1" parent="1" source="s2RD4rWoNlKBEPkYCCUj-17" target="s2RD4rWoNlKBEPkYCCUj-18">
          <mxGeometry relative="1" as="geometry" />
        </mxCell>
        <mxCell id="s2RD4rWoNlKBEPkYCCUj-28" value="FALSE" style="edgeStyle=orthogonalEdgeStyle;rounded=0;orthogonalLoop=1;jettySize=auto;html=1;" edge="1" parent="1" source="s2RD4rWoNlKBEPkYCCUj-17" target="s2RD4rWoNlKBEPkYCCUj-21">
          <mxGeometry x="-0.6455" relative="1" as="geometry">
            <mxPoint as="offset" />
          </mxGeometry>
        </mxCell>
        <UserObject label="if( TIMER_pause(&lt;br&gt;DELAY_TIMER_USED) &lt;br&gt;== TIMER_OK)" Function="EN_DIO_Error_T DIO_init(uint8_t pinNumber, EN_DIO_PORT_T portNumber, EN_DIO_DIRECTION_T direction);" tags="Flowchart" id="s2RD4rWoNlKBEPkYCCUj-17">
          <mxCell style="vsdxID=219;fillColor=#fff2cc;shape=stencil(UzV2Ls5ILEhVNTIoLinKz04tz0wpyVA1dlE1MsrMy0gtyiwBslSNXVWNndPyi1LTi/JL81Ig/IJEkEoQKze/DGRCBUSfAUiHkUElhGcK4bpBVOZk5iGpNEVVikeloQHZpsK0YlWLz1QgA+HFtMycHEgIIcujBwlQCBKcxq4A);strokeColor=#d6b656;spacingTop=-1;spacingBottom=-1;spacingLeft=-1;spacingRight=-1;points=[[0,0.5,0],[1,0.5,0],[0.5,0,0],[0.5,1,0]];labelBackgroundColor=none;rounded=1;html=1;whiteSpace=wrap;fontFamily=Calibri;fontSize=11.29;" vertex="1" parent="1">
            <mxGeometry x="-1950.25" y="-800" width="150" height="76" as="geometry" />
          </mxCell>
        </UserObject>
        <mxCell id="s2RD4rWoNlKBEPkYCCUj-25" value="TRUE" style="edgeStyle=orthogonalEdgeStyle;rounded=0;orthogonalLoop=1;jettySize=auto;html=1;" edge="1" parent="1" source="s2RD4rWoNlKBEPkYCCUj-18" target="s2RD4rWoNlKBEPkYCCUj-19">
          <mxGeometry relative="1" as="geometry" />
        </mxCell>
        <mxCell id="s2RD4rWoNlKBEPkYCCUj-29" value="FALSE" style="edgeStyle=orthogonalEdgeStyle;rounded=0;orthogonalLoop=1;jettySize=auto;html=1;" edge="1" parent="1" source="s2RD4rWoNlKBEPkYCCUj-18" target="s2RD4rWoNlKBEPkYCCUj-21">
          <mxGeometry x="-0.5635" relative="1" as="geometry">
            <mxPoint x="1" as="offset" />
          </mxGeometry>
        </mxCell>
        <UserObject label="if( TIMER_setDelayTime(&lt;br&gt;DELAY_TIMER_USED,&lt;br&gt;timeInMS) &lt;br&gt;== TIMER_OK)" Function="EN_DIO_Error_T DIO_init(uint8_t pinNumber, EN_DIO_PORT_T portNumber, EN_DIO_DIRECTION_T direction);" tags="Flowchart" id="s2RD4rWoNlKBEPkYCCUj-18">
          <mxCell style="vsdxID=219;fillColor=#fff2cc;shape=stencil(UzV2Ls5ILEhVNTIoLinKz04tz0wpyVA1dlE1MsrMy0gtyiwBslSNXVWNndPyi1LTi/JL81Ig/IJEkEoQKze/DGRCBUSfAUiHkUElhGcK4bpBVOZk5iGpNEVVikeloQHZpsK0YlWLz1QgA+HFtMycHEgIIcujBwlQCBKcxq4A);strokeColor=#d6b656;spacingTop=-1;spacingBottom=-1;spacingLeft=-1;spacingRight=-1;points=[[0,0.5,0],[1,0.5,0],[0.5,0,0],[0.5,1,0]];labelBackgroundColor=none;rounded=1;html=1;whiteSpace=wrap;fontFamily=Calibri;fontSize=11.29;" vertex="1" parent="1">
            <mxGeometry x="-2000" y="-700" width="249.5" height="116" as="geometry" />
          </mxCell>
        </UserObject>
        <mxCell id="s2RD4rWoNlKBEPkYCCUj-26" value="TRUE" style="edgeStyle=orthogonalEdgeStyle;rounded=0;orthogonalLoop=1;jettySize=auto;html=1;" edge="1" parent="1" source="s2RD4rWoNlKBEPkYCCUj-19" target="s2RD4rWoNlKBEPkYCCUj-20">
          <mxGeometry relative="1" as="geometry" />
        </mxCell>
        <mxCell id="s2RD4rWoNlKBEPkYCCUj-30" value="FALSE" style="edgeStyle=orthogonalEdgeStyle;rounded=0;orthogonalLoop=1;jettySize=auto;html=1;" edge="1" parent="1" source="s2RD4rWoNlKBEPkYCCUj-19" target="s2RD4rWoNlKBEPkYCCUj-21">
          <mxGeometry x="-0.4502" y="-2" relative="1" as="geometry">
            <mxPoint as="offset" />
          </mxGeometry>
        </mxCell>
        <UserObject label="if( TIMER_enableInterrupt(&lt;br&gt;DELAY_TIMER_USED) &lt;br&gt;== TIMER_OK)" Function="EN_DIO_Error_T DIO_init(uint8_t pinNumber, EN_DIO_PORT_T portNumber, EN_DIO_DIRECTION_T direction);" tags="Flowchart" id="s2RD4rWoNlKBEPkYCCUj-19">
          <mxCell style="vsdxID=219;fillColor=#fff2cc;shape=stencil(UzV2Ls5ILEhVNTIoLinKz04tz0wpyVA1dlE1MsrMy0gtyiwBslSNXVWNndPyi1LTi/JL81Ig/IJEkEoQKze/DGRCBUSfAUiHkUElhGcK4bpBVOZk5iGpNEVVikeloQHZpsK0YlWLz1QgA+HFtMycHEgIIcujBwlQCBKcxq4A);strokeColor=#d6b656;spacingTop=-1;spacingBottom=-1;spacingLeft=-1;spacingRight=-1;points=[[0,0.5,0],[1,0.5,0],[0.5,0,0],[0.5,1,0]];labelBackgroundColor=none;rounded=1;html=1;whiteSpace=wrap;fontFamily=Calibri;fontSize=11.29;" vertex="1" parent="1">
            <mxGeometry x="-1980.25" y="-560" width="210" height="76" as="geometry" />
          </mxCell>
        </UserObject>
        <UserObject label="&lt;div style=&quot;font-size: 11.29px;&quot;&gt;&lt;font style=&quot;font-size: 11.29px; direction: ltr; letter-spacing: 0px; line-height: 120%; opacity: 1;&quot;&gt;DELAY_OK&lt;/font&gt;&lt;/div&gt;" Function="EN_DIO_Error_T DIO_init(uint8_t pinNumber, EN_DIO_PORT_T portNumber, EN_DIO_DIRECTION_T direction);" tags="Flowchart" id="s2RD4rWoNlKBEPkYCCUj-20">
          <mxCell style="verticalAlign=middle;align=center;overflow=width;vsdxID=52;fillColor=#d5e8d4;shape=stencil(tVLREoIgEPwaHnEQxsl3s/9gEpSJwDko7e+DsEkze2l627vdu5uFRaxyHe8FosR5sCcxqMZ3iO0Rpcp0ApQPCLEasUpaEC3Yi2lS3fOojOhsr3HDmObyMtsVcYqS29Qh5FEfklwrM5OXeUa/yjkcAwfr7TDpiyTfXvjkMR+Vw2A998qaBac5tAKHU1hq3i4oNwjRr9ofvayt/+Rk+yX/4iWA159KpXWKxJx/z0Bopfyw+g4=);strokeColor=#82b366;spacingTop=-1;spacingBottom=-1;spacingLeft=-1;spacingRight=-1;points=[[0.5,1,0],[0.5,0,0],[0,0.5,0],[1,0.5,0]];labelBackgroundColor=none;rounded=1;html=1;whiteSpace=wrap;fontFamily=Calibri;fontSize=11.29;" vertex="1" parent="1">
            <mxGeometry x="-1925.75" y="-440" width="101" height="38" as="geometry" />
          </mxCell>
        </UserObject>
        <UserObject label="&lt;div style=&quot;font-size: 11.29px;&quot;&gt;&lt;font style=&quot;font-size: 11.29px; direction: ltr; letter-spacing: 0px; line-height: 120%; opacity: 1;&quot;&gt;DELAY_NOK&lt;/font&gt;&lt;/div&gt;" Function="EN_DIO_Error_T DIO_init(uint8_t pinNumber, EN_DIO_PORT_T portNumber, EN_DIO_DIRECTION_T direction);" tags="Flowchart" id="s2RD4rWoNlKBEPkYCCUj-21">
          <mxCell style="verticalAlign=middle;align=center;overflow=width;vsdxID=52;fillColor=#f8cecc;shape=stencil(tVLREoIgEPwaHnEQxsl3s/9gEpSJwDko7e+DsEkze2l627vdu5uFRaxyHe8FosR5sCcxqMZ3iO0Rpcp0ApQPCLEasUpaEC3Yi2lS3fOojOhsr3HDmObyMtsVcYqS29Qh5FEfklwrM5OXeUa/yjkcAwfr7TDpiyTfXvjkMR+Vw2A998qaBac5tAKHU1hq3i4oNwjRr9ofvayt/+Rk+yX/4iWA159KpXWKxJx/z0Bopfyw+g4=);strokeColor=#b85450;spacingTop=-1;spacingBottom=-1;spacingLeft=-1;spacingRight=-1;points=[[0.5,1,0],[0.5,0,0],[0,0.5,0],[1,0.5,0]];labelBackgroundColor=none;rounded=1;html=1;whiteSpace=wrap;fontFamily=Calibri;fontSize=11.29;" vertex="1" parent="1">
            <mxGeometry x="-1720" y="-440" width="101" height="38" as="geometry" />
          </mxCell>
        </UserObject>
        <mxCell id="s2RD4rWoNlKBEPkYCCUj-31" value="" style="edgeStyle=orthogonalEdgeStyle;rounded=0;orthogonalLoop=1;jettySize=auto;html=1;" edge="1" source="s2RD4rWoNlKBEPkYCCUj-32" target="s2RD4rWoNlKBEPkYCCUj-34" parent="1">
          <mxGeometry relative="1" as="geometry" />
        </mxCell>
        <UserObject label="&lt;div style=&quot;font-size: 11.29px;&quot;&gt;&lt;span style=&quot;font-size: 11.29px;&quot;&gt;START&lt;/span&gt;&lt;/div&gt;" Function="EN_DIO_Error_T DIO_init(uint8_t pinNumber, EN_DIO_PORT_T portNumber, EN_DIO_DIRECTION_T direction);" tags="Flowchart" id="s2RD4rWoNlKBEPkYCCUj-32">
          <mxCell style="verticalAlign=middle;align=center;overflow=width;vsdxID=30;fillColor=#dae8fc;shape=stencil(tVLREoIgEPwaHnEQxsl3s/9gEpSJwDko7e+DsEkze2l627vdu5uFRaxyHe8FosR5sCcxqMZ3iO0Rpcp0ApQPCLEasUpaEC3Yi2lS3fOojOhsr3HDmObyMtsVcYqS29Qh5FEfklwrM5OXeUa/yjkcAwfr7TDpiyTfXvjkMR+Vw2A998qaBac5tAKHU1hq3i4oNwjRr9ofvayt/+Rk+yX/4iWA159KpXWKxJx/z0Bopfyw+g4=);strokeColor=#6c8ebf;spacingTop=-1;spacingBottom=-1;spacingLeft=-1;spacingRight=-1;points=[[0.5,1,0],[0.5,0,0],[0,0.5,0],[1,0.5,0]];labelBackgroundColor=none;rounded=1;html=1;whiteSpace=wrap;fontFamily=Calibri;fontSize=11.29;" vertex="1" parent="1">
            <mxGeometry x="-1455.5" y="-990" width="101" height="38" as="geometry" />
          </mxCell>
        </UserObject>
        <mxCell id="s2RD4rWoNlKBEPkYCCUj-33" value="TRUE" style="edgeStyle=orthogonalEdgeStyle;rounded=0;orthogonalLoop=1;jettySize=auto;html=1;" edge="1" source="s2RD4rWoNlKBEPkYCCUj-34" target="s2RD4rWoNlKBEPkYCCUj-36" parent="1">
          <mxGeometry relative="1" as="geometry" />
        </mxCell>
        <UserObject label="if( TIMER_disableInterrupt(&lt;br&gt;DELAY_TIMER_USED) &lt;br&gt;== TIMER_OK)" Function="EN_DIO_Error_T DIO_init(uint8_t pinNumber, EN_DIO_PORT_T portNumber, EN_DIO_DIRECTION_T direction);" tags="Flowchart" id="s2RD4rWoNlKBEPkYCCUj-34">
          <mxCell style="vsdxID=219;fillColor=#fff2cc;shape=stencil(UzV2Ls5ILEhVNTIoLinKz04tz0wpyVA1dlE1MsrMy0gtyiwBslSNXVWNndPyi1LTi/JL81Ig/IJEkEoQKze/DGRCBUSfAUiHkUElhGcK4bpBVOZk5iGpNEVVikeloQHZpsK0YlWLz1QgA+HFtMycHEgIIcujBwlQCBKcxq4A);strokeColor=#d6b656;spacingTop=-1;spacingBottom=-1;spacingLeft=-1;spacingRight=-1;points=[[0,0.5,0],[1,0.5,0],[0.5,0,0],[0.5,1,0]];labelBackgroundColor=none;rounded=1;html=1;whiteSpace=wrap;fontFamily=Calibri;fontSize=11.29;" vertex="1" parent="1">
            <mxGeometry x="-1510" y="-920" width="210" height="76" as="geometry" />
          </mxCell>
        </UserObject>
        <mxCell id="s2RD4rWoNlKBEPkYCCUj-35" value="TRUE" style="edgeStyle=orthogonalEdgeStyle;rounded=0;orthogonalLoop=1;jettySize=auto;html=1;" edge="1" source="s2RD4rWoNlKBEPkYCCUj-36" target="s2RD4rWoNlKBEPkYCCUj-38" parent="1">
          <mxGeometry relative="1" as="geometry" />
        </mxCell>
        <UserObject label="if( TIMER_pause(&lt;br&gt;DELAY_TIMER_USED) &lt;br&gt;== TIMER_OK)" Function="EN_DIO_Error_T DIO_init(uint8_t pinNumber, EN_DIO_PORT_T portNumber, EN_DIO_DIRECTION_T direction);" tags="Flowchart" id="s2RD4rWoNlKBEPkYCCUj-36">
          <mxCell style="vsdxID=219;fillColor=#fff2cc;shape=stencil(UzV2Ls5ILEhVNTIoLinKz04tz0wpyVA1dlE1MsrMy0gtyiwBslSNXVWNndPyi1LTi/JL81Ig/IJEkEoQKze/DGRCBUSfAUiHkUElhGcK4bpBVOZk5iGpNEVVikeloQHZpsK0YlWLz1QgA+HFtMycHEgIIcujBwlQCBKcxq4A);strokeColor=#d6b656;spacingTop=-1;spacingBottom=-1;spacingLeft=-1;spacingRight=-1;points=[[0,0.5,0],[1,0.5,0],[0.5,0,0],[0.5,1,0]];labelBackgroundColor=none;rounded=1;html=1;whiteSpace=wrap;fontFamily=Calibri;fontSize=11.29;" vertex="1" parent="1">
            <mxGeometry x="-1480" y="-800" width="150" height="76" as="geometry" />
          </mxCell>
        </UserObject>
        <mxCell id="s2RD4rWoNlKBEPkYCCUj-37" value="TRUE" style="edgeStyle=orthogonalEdgeStyle;rounded=0;orthogonalLoop=1;jettySize=auto;html=1;" edge="1" source="s2RD4rWoNlKBEPkYCCUj-38" target="s2RD4rWoNlKBEPkYCCUj-39" parent="1">
          <mxGeometry relative="1" as="geometry" />
        </mxCell>
        <UserObject label="if( TIMER_setTime(&lt;br&gt;DELAY_TIMER_USED,&lt;br&gt;timeInMS) &lt;br&gt;== TIMER_OK)" Function="EN_DIO_Error_T DIO_init(uint8_t pinNumber, EN_DIO_PORT_T portNumber, EN_DIO_DIRECTION_T direction);" tags="Flowchart" id="s2RD4rWoNlKBEPkYCCUj-38">
          <mxCell style="vsdxID=219;fillColor=#fff2cc;shape=stencil(UzV2Ls5ILEhVNTIoLinKz04tz0wpyVA1dlE1MsrMy0gtyiwBslSNXVWNndPyi1LTi/JL81Ig/IJEkEoQKze/DGRCBUSfAUiHkUElhGcK4bpBVOZk5iGpNEVVikeloQHZpsK0YlWLz1QgA+HFtMycHEgIIcujBwlQCBKcxq4A);strokeColor=#d6b656;spacingTop=-1;spacingBottom=-1;spacingLeft=-1;spacingRight=-1;points=[[0,0.5,0],[1,0.5,0],[0.5,0,0],[0.5,1,0]];labelBackgroundColor=none;rounded=1;html=1;whiteSpace=wrap;fontFamily=Calibri;fontSize=11.29;" vertex="1" parent="1">
            <mxGeometry x="-1500" y="-690" width="190" height="96" as="geometry" />
          </mxCell>
        </UserObject>
        <mxCell id="s2RD4rWoNlKBEPkYCCUj-41" value="" style="edgeStyle=orthogonalEdgeStyle;rounded=0;orthogonalLoop=1;jettySize=auto;html=1;" edge="1" parent="1" source="s2RD4rWoNlKBEPkYCCUj-39" target="s2RD4rWoNlKBEPkYCCUj-40">
          <mxGeometry relative="1" as="geometry" />
        </mxCell>
        <UserObject label="if( TIMER_enableInterrupt(&lt;br&gt;DELAY_TIMER_USED) &lt;br&gt;== TIMER_OK)" Function="EN_DIO_Error_T DIO_init(uint8_t pinNumber, EN_DIO_PORT_T portNumber, EN_DIO_DIRECTION_T direction);" tags="Flowchart" id="s2RD4rWoNlKBEPkYCCUj-39">
          <mxCell style="vsdxID=219;fillColor=#fff2cc;shape=stencil(UzV2Ls5ILEhVNTIoLinKz04tz0wpyVA1dlE1MsrMy0gtyiwBslSNXVWNndPyi1LTi/JL81Ig/IJEkEoQKze/DGRCBUSfAUiHkUElhGcK4bpBVOZk5iGpNEVVikeloQHZpsK0YlWLz1QgA+HFtMycHEgIIcujBwlQCBKcxq4A);strokeColor=#d6b656;spacingTop=-1;spacingBottom=-1;spacingLeft=-1;spacingRight=-1;points=[[0,0.5,0],[1,0.5,0],[0.5,0,0],[0.5,1,0]];labelBackgroundColor=none;rounded=1;html=1;whiteSpace=wrap;fontFamily=Calibri;fontSize=11.29;" vertex="1" parent="1">
            <mxGeometry x="-1510" y="-560" width="210" height="76" as="geometry" />
          </mxCell>
        </UserObject>
        <mxCell id="s2RD4rWoNlKBEPkYCCUj-43" value="" style="edgeStyle=orthogonalEdgeStyle;rounded=0;orthogonalLoop=1;jettySize=auto;html=1;" edge="1" parent="1" source="s2RD4rWoNlKBEPkYCCUj-40" target="s2RD4rWoNlKBEPkYCCUj-42">
          <mxGeometry relative="1" as="geometry" />
        </mxCell>
        <mxCell id="s2RD4rWoNlKBEPkYCCUj-49" value="FALSE" style="edgeStyle=orthogonalEdgeStyle;rounded=0;orthogonalLoop=1;jettySize=auto;html=1;" edge="1" parent="1" source="s2RD4rWoNlKBEPkYCCUj-40" target="s2RD4rWoNlKBEPkYCCUj-48">
          <mxGeometry relative="1" as="geometry" />
        </mxCell>
        <UserObject label="if( TIMER_resume(&lt;br&gt;DELAY_TIMER_USED) &lt;br&gt;== TIMER_OK)" Function="EN_DIO_Error_T DIO_init(uint8_t pinNumber, EN_DIO_PORT_T portNumber, EN_DIO_DIRECTION_T direction);" tags="Flowchart" id="s2RD4rWoNlKBEPkYCCUj-40">
          <mxCell style="vsdxID=219;fillColor=#fff2cc;shape=stencil(UzV2Ls5ILEhVNTIoLinKz04tz0wpyVA1dlE1MsrMy0gtyiwBslSNXVWNndPyi1LTi/JL81Ig/IJEkEoQKze/DGRCBUSfAUiHkUElhGcK4bpBVOZk5iGpNEVVikeloQHZpsK0YlWLz1QgA+HFtMycHEgIIcujBwlQCBKcxq4A);strokeColor=#d6b656;spacingTop=-1;spacingBottom=-1;spacingLeft=-1;spacingRight=-1;points=[[0,0.5,0],[1,0.5,0],[0.5,0,0],[0.5,1,0]];labelBackgroundColor=none;rounded=1;html=1;whiteSpace=wrap;fontFamily=Calibri;fontSize=11.29;" vertex="1" parent="1">
            <mxGeometry x="-1480" y="-440" width="150" height="76" as="geometry" />
          </mxCell>
        </UserObject>
        <UserObject label="&lt;div style=&quot;font-size: 11.29px;&quot;&gt;&lt;font style=&quot;font-size: 11.29px; direction: ltr; letter-spacing: 0px; line-height: 120%; opacity: 1;&quot;&gt;DELAY_OK&lt;/font&gt;&lt;/div&gt;" Function="EN_DIO_Error_T DIO_init(uint8_t pinNumber, EN_DIO_PORT_T portNumber, EN_DIO_DIRECTION_T direction);" tags="Flowchart" id="s2RD4rWoNlKBEPkYCCUj-42">
          <mxCell style="verticalAlign=middle;align=center;overflow=width;vsdxID=52;fillColor=#d5e8d4;shape=stencil(tVLREoIgEPwaHnEQxsl3s/9gEpSJwDko7e+DsEkze2l627vdu5uFRaxyHe8FosR5sCcxqMZ3iO0Rpcp0ApQPCLEasUpaEC3Yi2lS3fOojOhsr3HDmObyMtsVcYqS29Qh5FEfklwrM5OXeUa/yjkcAwfr7TDpiyTfXvjkMR+Vw2A998qaBac5tAKHU1hq3i4oNwjRr9ofvayt/+Rk+yX/4iWA159KpXWKxJx/z0Bopfyw+g4=);strokeColor=#82b366;spacingTop=-1;spacingBottom=-1;spacingLeft=-1;spacingRight=-1;points=[[0.5,1,0],[0.5,0,0],[0,0.5,0],[1,0.5,0]];labelBackgroundColor=none;rounded=1;html=1;whiteSpace=wrap;fontFamily=Calibri;fontSize=11.29;" vertex="1" parent="1">
            <mxGeometry x="-1455.5" y="-320" width="101" height="38" as="geometry" />
          </mxCell>
        </UserObject>
        <mxCell id="s2RD4rWoNlKBEPkYCCUj-44" value="FALSE" style="edgeStyle=orthogonalEdgeStyle;rounded=0;orthogonalLoop=1;jettySize=auto;html=1;" edge="1" target="s2RD4rWoNlKBEPkYCCUj-48" parent="1">
          <mxGeometry x="-0.8149" y="-2" relative="1" as="geometry">
            <mxPoint x="-1300" y="-882" as="sourcePoint" />
            <Array as="points">
              <mxPoint x="-1199" y="-881" />
            </Array>
            <mxPoint as="offset" />
          </mxGeometry>
        </mxCell>
        <mxCell id="s2RD4rWoNlKBEPkYCCUj-45" value="FALSE" style="edgeStyle=orthogonalEdgeStyle;rounded=0;orthogonalLoop=1;jettySize=auto;html=1;" edge="1" target="s2RD4rWoNlKBEPkYCCUj-48" parent="1">
          <mxGeometry x="-0.6455" relative="1" as="geometry">
            <mxPoint x="-1330" y="-762" as="sourcePoint" />
            <mxPoint as="offset" />
          </mxGeometry>
        </mxCell>
        <mxCell id="s2RD4rWoNlKBEPkYCCUj-46" value="FALSE" style="edgeStyle=orthogonalEdgeStyle;rounded=0;orthogonalLoop=1;jettySize=auto;html=1;" edge="1" target="s2RD4rWoNlKBEPkYCCUj-48" parent="1">
          <mxGeometry x="-0.5635" relative="1" as="geometry">
            <mxPoint x="-1320" y="-642" as="sourcePoint" />
            <mxPoint x="1" as="offset" />
          </mxGeometry>
        </mxCell>
        <mxCell id="s2RD4rWoNlKBEPkYCCUj-47" value="FALSE" style="edgeStyle=orthogonalEdgeStyle;rounded=0;orthogonalLoop=1;jettySize=auto;html=1;" edge="1" target="s2RD4rWoNlKBEPkYCCUj-48" parent="1">
          <mxGeometry x="-0.4502" y="-2" relative="1" as="geometry">
            <mxPoint x="-1300" y="-522" as="sourcePoint" />
            <mxPoint as="offset" />
          </mxGeometry>
        </mxCell>
        <UserObject label="&lt;div style=&quot;font-size: 11.29px;&quot;&gt;&lt;font style=&quot;font-size: 11.29px; direction: ltr; letter-spacing: 0px; line-height: 120%; opacity: 1;&quot;&gt;DELAY_NOK&lt;/font&gt;&lt;/div&gt;" Function="EN_DIO_Error_T DIO_init(uint8_t pinNumber, EN_DIO_PORT_T portNumber, EN_DIO_DIRECTION_T direction);" tags="Flowchart" id="s2RD4rWoNlKBEPkYCCUj-48">
          <mxCell style="verticalAlign=middle;align=center;overflow=width;vsdxID=52;fillColor=#f8cecc;shape=stencil(tVLREoIgEPwaHnEQxsl3s/9gEpSJwDko7e+DsEkze2l627vdu5uFRaxyHe8FosR5sCcxqMZ3iO0Rpcp0ApQPCLEasUpaEC3Yi2lS3fOojOhsr3HDmObyMtsVcYqS29Qh5FEfklwrM5OXeUa/yjkcAwfr7TDpiyTfXvjkMR+Vw2A998qaBac5tAKHU1hq3i4oNwjRr9ofvayt/+Rk+yX/4iWA159KpXWKxJx/z0Bopfyw+g4=);strokeColor=#b85450;spacingTop=-1;spacingBottom=-1;spacingLeft=-1;spacingRight=-1;points=[[0.5,1,0],[0.5,0,0],[0,0.5,0],[1,0.5,0]];labelBackgroundColor=none;rounded=1;html=1;whiteSpace=wrap;fontFamily=Calibri;fontSize=11.29;" vertex="1" parent="1">
            <mxGeometry x="-1250" y="-320" width="101" height="38" as="geometry" />
          </mxCell>
        </UserObject>
        <mxCell id="s2RD4rWoNlKBEPkYCCUj-50" value="" style="edgeStyle=orthogonalEdgeStyle;rounded=0;orthogonalLoop=1;jettySize=auto;html=1;" edge="1" source="s2RD4rWoNlKBEPkYCCUj-51" target="s2RD4rWoNlKBEPkYCCUj-52" parent="1">
          <mxGeometry relative="1" as="geometry" />
        </mxCell>
        <UserObject label="&lt;div style=&quot;font-size: 11.29px;&quot;&gt;&lt;span style=&quot;font-size: 11.29px;&quot;&gt;START&lt;/span&gt;&lt;/div&gt;" Function="EN_DIO_Error_T DIO_init(uint8_t pinNumber, EN_DIO_PORT_T portNumber, EN_DIO_DIRECTION_T direction);" tags="Flowchart" id="s2RD4rWoNlKBEPkYCCUj-51">
          <mxCell style="verticalAlign=middle;align=center;overflow=width;vsdxID=30;fillColor=#dae8fc;shape=stencil(tVLREoIgEPwaHnEQxsl3s/9gEpSJwDko7e+DsEkze2l627vdu5uFRaxyHe8FosR5sCcxqMZ3iO0Rpcp0ApQPCLEasUpaEC3Yi2lS3fOojOhsr3HDmObyMtsVcYqS29Qh5FEfklwrM5OXeUa/yjkcAwfr7TDpiyTfXvjkMR+Vw2A998qaBac5tAKHU1hq3i4oNwjRr9ofvayt/+Rk+yX/4iWA159KpXWKxJx/z0Bopfyw+g4=);strokeColor=#6c8ebf;spacingTop=-1;spacingBottom=-1;spacingLeft=-1;spacingRight=-1;points=[[0.5,1,0],[0.5,0,0],[0,0.5,0],[1,0.5,0]];labelBackgroundColor=none;rounded=1;html=1;whiteSpace=wrap;fontFamily=Calibri;fontSize=11.29;" vertex="1" parent="1">
            <mxGeometry x="-2820" y="-990" width="101" height="38" as="geometry" />
          </mxCell>
        </UserObject>
        <UserObject label="if( TIMER_setCallBack(&lt;br&gt;DELAY_TIMER_USED) &lt;br&gt;== TIMER_OK)" Function="EN_DIO_Error_T DIO_init(uint8_t pinNumber, EN_DIO_PORT_T portNumber, EN_DIO_DIRECTION_T direction);" tags="Flowchart" id="s2RD4rWoNlKBEPkYCCUj-52">
          <mxCell style="vsdxID=219;fillColor=#fff2cc;shape=stencil(UzV2Ls5ILEhVNTIoLinKz04tz0wpyVA1dlE1MsrMy0gtyiwBslSNXVWNndPyi1LTi/JL81Ig/IJEkEoQKze/DGRCBUSfAUiHkUElhGcK4bpBVOZk5iGpNEVVikeloQHZpsK0YlWLz1QgA+HFtMycHEgIIcujBwlQCBKcxq4A);strokeColor=#d6b656;spacingTop=-1;spacingBottom=-1;spacingLeft=-1;spacingRight=-1;points=[[0,0.5,0],[1,0.5,0],[0.5,0,0],[0.5,1,0]];labelBackgroundColor=none;rounded=1;html=1;whiteSpace=wrap;fontFamily=Calibri;fontSize=11.29;" vertex="1" parent="1">
            <mxGeometry x="-2849" y="-930" width="159" height="96" as="geometry" />
          </mxCell>
        </UserObject>
        <UserObject label="&lt;div style=&quot;font-size: 11.29px;&quot;&gt;&lt;font style=&quot;font-size: 11.29px; direction: ltr; letter-spacing: 0px; line-height: 120%; opacity: 1;&quot;&gt;DELAY_OK&lt;/font&gt;&lt;/div&gt;" Function="EN_DIO_Error_T DIO_init(uint8_t pinNumber, EN_DIO_PORT_T portNumber, EN_DIO_DIRECTION_T direction);" tags="Flowchart" id="s2RD4rWoNlKBEPkYCCUj-53">
          <mxCell style="verticalAlign=middle;align=center;overflow=width;vsdxID=52;fillColor=#d5e8d4;shape=stencil(tVLREoIgEPwaHnEQxsl3s/9gEpSJwDko7e+DsEkze2l627vdu5uFRaxyHe8FosR5sCcxqMZ3iO0Rpcp0ApQPCLEasUpaEC3Yi2lS3fOojOhsr3HDmObyMtsVcYqS29Qh5FEfklwrM5OXeUa/yjkcAwfr7TDpiyTfXvjkMR+Vw2A998qaBac5tAKHU1hq3i4oNwjRr9ofvayt/+Rk+yX/4iWA159KpXWKxJx/z0Bopfyw+g4=);strokeColor=#82b366;spacingTop=-1;spacingBottom=-1;spacingLeft=-1;spacingRight=-1;points=[[0.5,1,0],[0.5,0,0],[0,0.5,0],[1,0.5,0]];labelBackgroundColor=none;rounded=1;html=1;whiteSpace=wrap;fontFamily=Calibri;fontSize=11.29;" vertex="1" parent="1">
            <mxGeometry x="-2820" y="-798" width="101" height="38" as="geometry" />
          </mxCell>
        </UserObject>
        <UserObject label="&lt;div style=&quot;font-size: 11.29px;&quot;&gt;&lt;font style=&quot;font-size: 11.29px; direction: ltr; letter-spacing: 0px; line-height: 120%; opacity: 1;&quot;&gt;DELAY_NOK&lt;/font&gt;&lt;/div&gt;" Function="EN_DIO_Error_T DIO_init(uint8_t pinNumber, EN_DIO_PORT_T portNumber, EN_DIO_DIRECTION_T direction);" tags="Flowchart" id="s2RD4rWoNlKBEPkYCCUj-54">
          <mxCell style="verticalAlign=middle;align=center;overflow=width;vsdxID=52;fillColor=#f8cecc;shape=stencil(tVLREoIgEPwaHnEQxsl3s/9gEpSJwDko7e+DsEkze2l627vdu5uFRaxyHe8FosR5sCcxqMZ3iO0Rpcp0ApQPCLEasUpaEC3Yi2lS3fOojOhsr3HDmObyMtsVcYqS29Qh5FEfklwrM5OXeUa/yjkcAwfr7TDpiyTfXvjkMR+Vw2A998qaBac5tAKHU1hq3i4oNwjRr9ofvayt/+Rk+yX/4iWA159KpXWKxJx/z0Bopfyw+g4=);strokeColor=#b85450;spacingTop=-1;spacingBottom=-1;spacingLeft=-1;spacingRight=-1;points=[[0.5,1,0],[0.5,0,0],[0,0.5,0],[1,0.5,0]];labelBackgroundColor=none;rounded=1;html=1;whiteSpace=wrap;fontFamily=Calibri;fontSize=11.29;" vertex="1" parent="1">
            <mxGeometry x="-2636" y="-798" width="101" height="38" as="geometry" />
          </mxCell>
        </UserObject>
        <mxCell id="s2RD4rWoNlKBEPkYCCUj-55" value="TRUE" style="edgeStyle=orthogonalEdgeStyle;rounded=0;orthogonalLoop=1;jettySize=auto;html=1;exitX=0.5;exitY=1;exitDx=0;exitDy=0;exitPerimeter=0;" edge="1" target="s2RD4rWoNlKBEPkYCCUj-53" parent="1" source="s2RD4rWoNlKBEPkYCCUj-52">
          <mxGeometry relative="1" as="geometry">
            <mxPoint x="-2769" y="-842" as="sourcePoint" />
          </mxGeometry>
        </mxCell>
        <mxCell id="s2RD4rWoNlKBEPkYCCUj-56" value="FALSE" style="edgeStyle=orthogonalEdgeStyle;rounded=0;orthogonalLoop=1;jettySize=auto;html=1;" edge="1" target="s2RD4rWoNlKBEPkYCCUj-54" parent="1" source="s2RD4rWoNlKBEPkYCCUj-52">
          <mxGeometry x="-0.3248" relative="1" as="geometry">
            <mxPoint x="-2694" y="-880" as="sourcePoint" />
            <mxPoint as="offset" />
          </mxGeometry>
        </mxCell>
        <mxCell id="s2RD4rWoNlKBEPkYCCUj-57" value="&lt;h1&gt;&lt;font face=&quot;Calibri&quot;&gt;DELAY_setCallBack&lt;/font&gt;&lt;br&gt;&lt;/h1&gt;" style="text;html=1;strokeColor=none;fillColor=none;spacing=5;spacingTop=-20;whiteSpace=wrap;overflow=hidden;rounded=0;" vertex="1" parent="1">
          <mxGeometry x="-2869" y="-1060" width="199" height="40" as="geometry" />
        </mxCell>
        <mxCell id="s2RD4rWoNlKBEPkYCCUj-59" value="&lt;h1&gt;&lt;font face=&quot;Calibri&quot;&gt;DELAY_setTimeNonBlocking&lt;/font&gt;&lt;br&gt;&lt;/h1&gt;" style="text;html=1;strokeColor=none;fillColor=none;spacing=5;spacingTop=-20;whiteSpace=wrap;overflow=hidden;rounded=0;" vertex="1" parent="1">
          <mxGeometry x="-1550" y="-1060" width="290" height="40" as="geometry" />
        </mxCell>
        <mxCell id="s2RD4rWoNlKBEPkYCCUj-60" value="&lt;h1&gt;&lt;font face=&quot;Calibri&quot;&gt;DELAY_setTime&lt;/font&gt;&lt;br&gt;&lt;/h1&gt;" style="text;html=1;strokeColor=none;fillColor=none;spacing=5;spacingTop=-20;whiteSpace=wrap;overflow=hidden;rounded=0;" vertex="1" parent="1">
          <mxGeometry x="-1955.37" y="-1060" width="160.25" height="40" as="geometry" />
        </mxCell>
        <mxCell id="s2RD4rWoNlKBEPkYCCUj-61" value="&lt;h1&gt;&lt;font face=&quot;Calibri&quot;&gt;DELAY_init&lt;/font&gt;&lt;/h1&gt;" style="text;html=1;strokeColor=none;fillColor=none;spacing=5;spacingTop=-20;whiteSpace=wrap;overflow=hidden;rounded=0;" vertex="1" parent="1">
          <mxGeometry x="-2419" y="-1060" width="119" height="40" as="geometry" />
        </mxCell>
      </root>
    </mxGraphModel>
  </diagram>
</mxfile>
